# Blender v2.79 (sub 0) OBJ File: 'tank.blend'
# www.blender.org
mtllib tank.mtl
o Cylinder
v 0.762600 0.872970 -0.051419
v 2.642795 1.581477 0.029643
v 0.764892 0.863642 -0.043738
v 2.644714 1.572119 0.037390
v 0.766742 0.855937 -0.034330
v 2.646107 1.564378 0.046846
v 0.768078 0.850153 -0.023558
v 2.646920 1.558552 0.057648
v 0.768849 0.846512 -0.011836
v 2.647123 1.554865 0.069380
v 0.769025 0.845152 0.000387
v 2.646707 1.553458 0.081591
v 0.768599 0.846128 0.012641
v 2.645689 1.554386 0.093814
v 0.767588 0.849400 0.024454
v 2.644107 1.557612 0.105576
v 0.766031 0.854844 0.035372
v 2.642022 1.563014 0.116428
v 0.763987 0.862250 0.044977
v 2.639515 1.570383 0.125951
v 0.761534 0.871334 0.052898
v 2.636681 1.579437 0.133780
v 0.758769 0.881746 0.058832
v 2.633631 1.589826 0.139613
v 0.755796 0.893087 0.062551
v 2.630480 1.601152 0.143227
v 0.752729 0.904920 0.063911
v 2.627350 1.612981 0.144483
v 0.749687 0.916791 0.062860
v 2.624361 1.624856 0.143333
v 0.746787 0.928244 0.059439
v 2.621629 1.636322 0.139820
v 0.744139 0.938838 0.053780
v 2.619257 1.646938 0.134079
v 0.741847 0.948167 0.046098
v 2.617338 1.656297 0.126333
v 0.739997 0.955871 0.036691
v 2.615945 1.664038 0.116877
v 0.738661 0.961655 0.025919
v 2.615132 1.669864 0.106075
v 0.737890 0.965297 0.014196
v 2.614929 1.673551 0.094343
v 0.737714 0.966656 0.001973
v 2.615345 1.674958 0.082131
v 0.738140 0.965681 -0.010280
v 2.616364 1.674030 0.069909
v 0.739151 0.962408 -0.022093
v 2.617945 1.670803 0.058146
v 0.740709 0.956964 -0.033012
v 2.620030 1.665401 0.047295
v 0.742753 0.949558 -0.042616
v 2.622537 1.658032 0.037772
v 0.745204 0.940474 -0.050538
v 2.625371 1.648979 0.029943
v 0.747970 0.930062 -0.056472
v 2.628422 1.638589 0.024110
v 0.750944 0.918721 -0.060190
v 2.631572 1.627263 0.020495
v 0.754010 0.906888 -0.061550
v 2.634702 1.615435 0.019239
v 0.757052 0.895017 -0.060500
v 2.637691 1.603559 0.020390
v 0.759952 0.883565 -0.057079
v 2.640424 1.592093 0.023903
vn 0.2525 -0.5815 -0.7733
vn 0.2963 -0.7134 -0.6351
vn 0.3287 -0.8176 -0.4728
vn 0.3484 -0.8905 -0.2927
vn 0.3549 -0.9293 -0.1017
vn 0.3479 -0.9329 0.0931
vn 0.3277 -0.9010 0.2844
vn 0.2949 -0.8346 0.4652
vn 0.2508 -0.7363 0.6284
vn 0.1970 -0.6095 0.7679
vn 0.1354 -0.4589 0.8781
vn 0.0685 -0.2903 0.9545
vn -0.0011 -0.1102 0.9939
vn -0.0708 0.0742 0.9947
vn -0.1376 0.2557 0.9569
vn -0.1990 0.4270 0.8821
vn -0.2527 0.5815 0.7733
vn -0.2965 0.7133 0.6350
vn -0.3288 0.8176 0.4727
vn -0.3485 0.8904 0.2927
vn -0.3550 0.9293 0.1017
vn -0.3479 0.9329 -0.0931
vn -0.3276 0.9010 -0.2844
vn -0.2948 0.8347 -0.4652
vn -0.2507 0.7363 -0.6284
vn -0.1968 0.6095 -0.7679
vn -0.1353 0.4589 -0.8781
vn -0.0684 0.2903 -0.9545
vn 0.0012 0.1102 -0.9939
vn 0.0707 -0.0742 -0.9947
vn 0.9665 0.2492 0.0616
vn 0.1375 -0.2557 -0.9569
vn 0.1989 -0.4270 -0.8821
vn -0.9683 -0.2493 -0.0138
usemtl Red
s off
f 1//1 2//1 4//1 3//1
f 3//2 4//2 6//2 5//2
f 5//3 6//3 8//3 7//3
f 7//4 8//4 10//4 9//4
f 9//5 10//5 12//5 11//5
f 11//6 12//6 14//6 13//6
f 13//7 14//7 16//7 15//7
f 15//8 16//8 18//8 17//8
f 17//9 18//9 20//9 19//9
f 19//10 20//10 22//10 21//10
f 21//11 22//11 24//11 23//11
f 23//12 24//12 26//12 25//12
f 25//13 26//13 28//13 27//13
f 27//14 28//14 30//14 29//14
f 29//15 30//15 32//15 31//15
f 31//16 32//16 34//16 33//16
f 33//17 34//17 36//17 35//17
f 35//18 36//18 38//18 37//18
f 37//19 38//19 40//19 39//19
f 39//20 40//20 42//20 41//20
f 41//21 42//21 44//21 43//21
f 43//22 44//22 46//22 45//22
f 45//23 46//23 48//23 47//23
f 47//24 48//24 50//24 49//24
f 49//25 50//25 52//25 51//25
f 51//26 52//26 54//26 53//26
f 53//27 54//27 56//27 55//27
f 55//28 56//28 58//28 57//28
f 57//29 58//29 60//29 59//29
f 59//30 60//30 62//30 61//30
f 4//31 2//31 64//31 62//31 60//31 58//31 56//31 54//31 52//31 50//31 48//31 46//31 44//31 42//31 40//31 38//31 36//31 34//31 32//31 30//31 28//31 26//31 24//31 22//31 20//31 18//31 16//31 14//31 12//31 10//31 8//31 6//31
f 61//32 62//32 64//32 63//32
f 63//33 64//33 2//33 1//33
f 1//34 3//34 5//34 7//34 9//34 11//34 13//34 15//34 17//34 19//34 21//34 23//34 25//34 27//34 29//34 31//34 33//34 35//34 37//34 39//34 41//34 43//34 45//34 47//34 49//34 51//34 53//34 55//34 57//34 59//34 61//34 63//34
o Cube
v -1.460539 0.310595 1.522043
v -1.460539 0.310595 -1.410672
v 1.472176 0.310595 -1.410671
v 1.472176 0.310595 1.522044
v -1.460540 -0.569219 1.522043
v -1.460538 -0.569219 -1.410672
v 1.472177 -0.569219 -1.410671
v 1.472176 -0.569219 1.522044
v -0.679983 0.638357 0.741487
v -0.679983 0.638357 -0.630115
v 0.691620 0.638357 0.741488
v 0.691620 0.638357 -0.630115
v -0.679983 0.638357 0.741487
v -0.679983 0.638357 -0.630115
v 0.739933 0.638357 0.741488
v 0.739933 0.638357 -0.630115
v -0.679983 0.961258 0.741487
v -0.679983 0.961258 -0.630115
v 0.691620 0.961258 0.741488
v 0.691620 0.961258 -0.630115
v 0.728181 0.997803 0.136185
v 0.691620 0.961258 -0.172914
v 0.691620 0.961258 0.284287
v 0.739933 0.638357 0.055686
vn 0.3872 -0.9220 0.0000
vn 0.0000 1.0000 0.0000
vn 1.0000 0.0000 0.0000
vn -0.0000 -0.0000 1.0000
vn -1.0000 -0.0000 -0.0000
vn 0.0000 0.0000 -1.0000
vn -0.3872 -0.9220 -0.0000
vn -0.0000 -0.9220 0.3872
vn 0.0000 -0.9220 -0.3872
vn 0.0000 -0.1199 -0.9928
vn 0.0000 -1.0000 -0.0000
vn -0.9890 -0.1480 -0.0000
usemtl Red
s off
f 65//35 66//35 74//35 73//35
f 69//36 72//36 71//36 70//36
f 65//37 69//37 70//37 66//37
f 66//38 70//38 71//38 67//38
f 67//39 71//39 72//39 68//39
f 69//40 65//40 68//40 72//40
f 76//36 75//36 79//36 88//36 80//36
f 67//41 68//41 75//41 76//41
f 66//42 67//42 76//42 74//42
f 68//43 65//43 73//43 75//43
f 78//38 80//38 84//38 82//38
f 75//44 73//44 77//44 79//44
f 74//36 76//36 80//36 78//36
f 73//38 74//38 78//38 77//38
f 81//45 82//45 84//45 86//45 87//45 83//45
f 77//37 78//37 82//37 81//37
f 80//46 88//46 79//46 83//46 87//46 86//46 84//46
f 79//40 77//40 81//40 83//40
l 84 85
